<svg xmlns="http://www.w3.org/2000/svg" viewBox="0 0 512 512"><defs><style>.cls-1{fill:#191616;}</style></defs><title>Asset 1</title><g id="Layer_2" data-name="Layer 2"><g id="Layer_1-2" data-name="Layer 1"><g id="Layer_2-2" data-name="Layer 2"><g id="Layer_1-2-2" data-name="Layer 1-2"><path class="cls-1" d="M510.46,150.45c-1.25-27.25-5.57-45.86-11.9-62.14A125.54,125.54,0,0,0,469,43a125.48,125.48,0,0,0-45.34-29.54C407.4,7.11,388.8,2.79,361.55,1.55S325.52,0,256,0,177.75.3,150.45,1.54,104.6,7.11,88.31,13.44A125.54,125.54,0,0,0,43,43,125.61,125.61,0,0,0,13.43,88.31C7.11,104.59,2.79,123.2,1.55,150.45S0,186.47,0,256s.3,78.25,1.55,105.55,5.57,45.85,11.9,62.14A125.43,125.43,0,0,0,43,469a125.38,125.38,0,0,0,45.35,29.52c16.28,6.34,34.89,10.66,62.14,11.91S186.48,512,256,512s78.25-.3,105.55-1.54,45.86-5.57,62.14-11.91a130.84,130.84,0,0,0,74.87-74.86c6.33-16.29,10.65-34.9,11.9-62.14S512,325.52,512,256,511.7,177.75,510.46,150.45Zm-46.08,209c-1.14,25-5.31,38.51-8.81,47.53A84.81,84.81,0,0,1,407,455.57c-9,3.5-22.57,7.68-47.53,8.81-27,1.24-35.09,1.5-103.45,1.5s-76.46-.26-103.45-1.5c-25-1.13-38.51-5.31-47.53-8.81A79.45,79.45,0,0,1,75.6,436.42,79.3,79.3,0,0,1,56.43,407c-3.5-9-7.68-22.57-8.81-47.53-1.23-27-1.49-35.09-1.49-103.45s.26-76.45,1.49-103.45c1.14-25,5.31-38.51,8.81-47.53A79.4,79.4,0,0,1,75.58,75.58,79.46,79.46,0,0,1,105,56.43c9-3.5,22.57-7.67,47.53-8.81,27-1.23,35.09-1.49,103.45-1.49h0c68.35,0,76.45.26,103.45,1.49,25,1.14,38.51,5.31,47.53,8.81a79.42,79.42,0,0,1,29.43,19.15A79.22,79.22,0,0,1,455.56,105c3.51,9,7.68,22.57,8.82,47.53,1.23,27,1.49,35.09,1.49,103.45S465.61,332.45,464.38,359.45Z"/><path class="cls-1" d="M256,124.54A131.46,131.46,0,1,0,387.46,256h0A131.46,131.46,0,0,0,256,124.54Zm0,216.79A85.34,85.34,0,1,1,341.33,256v0A85.32,85.32,0,0,1,256,341.33Z"/><path class="cls-1" d="M423.37,119.35a30.72,30.72,0,1,1-30.72-30.72,30.72,30.72,0,0,1,30.72,30.72Z"/></g></g></g></g></svg>