<?xml version="1.0" encoding="utf-8"?>
<!-- Generator: Adobe Illustrator 20.1.0, SVG Export Plug-In . SVG Version: 6.00 Build 0)  -->
<svg version="1.1" id="Layer_1" xmlns="http://www.w3.org/2000/svg" xmlns:xlink="http://www.w3.org/1999/xlink" x="0px" y="0px"
	 viewBox="0 0 184.1 29" style="enable-background:new 0 0 184.1 29;" xml:space="preserve">
<style type="text/css">
	.st0{fill:#FFFFFF;}
</style>
<title>Asset 10</title>
<g id="Layer_2">
	<g id="Layer_1-2">
		<path class="st0" d="M58.3,4.8c-0.5,0-1-0.2-1.4-0.5c-0.7-0.7-0.8-1.8-0.1-2.6c0,0,0.1-0.1,0.1-0.1C57.2,1.2,57.7,1,58.3,1
			c0.5,0,1,0.2,1.4,0.5c0.7,0.7,0.8,1.8,0.1,2.6c0,0-0.1,0.1-0.1,0.1C59.3,4.6,58.8,4.8,58.3,4.8z M60,27.8h-3.6v-20H60L60,27.8z"/>
		<path class="st0" d="M75.5,27.8h-3.8l-8.3-20h3.8L75.5,27.8z M75.5,27.8h-3.8l8.3-20h3.8L75.5,27.8z"/>
		<path class="st0" d="M101.4,19.6v3c0,1,0,1.8,0,2.6s0,1.4,0,1.8v0.7h-3.7v-2.1c-0.7,0.9-1.7,1.6-2.8,2c-2,0.7-4.1,0.8-6.2,0.2
			c-0.9-0.3-1.8-0.7-2.5-1.3c-0.7-0.6-1.4-1.3-1.8-2.1c-0.5-0.9-0.7-1.9-0.7-2.9c0-1,0.2-2.1,0.6-3c0.4-0.8,0.9-1.5,1.6-2
			c0.7-0.5,1.5-0.9,2.3-1.2c1-0.2,2-0.4,3-0.4c1,0,2.1,0.1,3.1,0.2c1.1,0.2,2.2,0.4,3.3,0.8v-0.2c0-0.2,0.1-0.4,0.1-0.6v-0.5
			c0-0.7-0.1-1.3-0.4-1.9c-0.2-0.5-0.6-0.9-1-1.3c-0.5-0.4-1-0.6-1.5-0.8c-0.6-0.2-1.2-0.3-1.8-0.3c-0.6,0-1.2,0.1-1.7,0.2
			c-0.5,0.1-1.1,0.3-1.5,0.6c-0.4,0.3-0.8,0.7-1.1,1.1c-0.3,0.5-0.5,1-0.5,1.6h-3.7c0.1-1.1,0.3-2.1,0.9-3.1
			c0.5-0.9,1.1-1.6,1.9-2.2c0.8-0.6,1.7-1,2.6-1.3c1-0.3,2-0.4,3-0.4C93.8,7,95,7.2,96,7.5c2.1,0.6,3.8,2.2,4.6,4.2
			c0.5,1.3,0.8,2.6,0.7,3.9v0.2c0.4,0,0.8-0.1,1.2-0.2s0.8-0.2,1.3-0.3v3.8L101.4,19.6z M97.7,19.6c-0.3,0-0.6-0.1-0.9-0.2l-1.4-0.3
			c-0.6-0.1-1.1-0.2-1.8-0.3c-0.6-0.1-1.2-0.2-1.8-0.2c-0.5,0-1,0.1-1.5,0.1c-0.5,0.1-1,0.3-1.4,0.5c-0.4,0.2-0.8,0.5-1.1,0.9
			c-0.3,0.4-0.5,0.9-0.4,1.4c0,0.4,0.1,0.9,0.4,1.2c0.3,0.4,0.6,0.7,1,1c0.5,0.3,1,0.5,1.5,0.7c0.6,0.2,1.2,0.2,1.8,0.2
			c0.7,0,1.4-0.1,2.1-0.4c0.6-0.2,1.2-0.6,1.8-1c0.5-0.3,0.9-0.8,1.3-1.2c0.3-0.3,0.4-0.7,0.5-1.2L97.7,19.6z"/>
		<path class="st0" d="M111,27.8h-3.5V2.6h3.5V27.8z"/>
		<path class="st0" d="M133.9,25.7c-1,0.7-2.1,1.3-3.3,1.8c-2.5,1-5.3,1-7.9,0.2c-1.1-0.4-2-0.9-2.9-1.7c-0.9-0.7-1.5-1.7-2-2.7
			c-0.5-1.2-0.8-2.4-0.8-3.7v-0.2c-0.4,0.1-0.9,0.1-1.3,0.1c-0.4,0-0.9,0.1-1.3,0.3v-3.6c0.4-0.1,0.9-0.2,1.3-0.2
			c0.4,0,0.9,0,1.3-0.1c0.1-1.2,0.4-2.4,0.9-3.5c0.5-1,1.2-2,2-2.8c0.9-0.8,1.9-1.4,3.1-1.8c1.2-0.4,2.6-0.7,3.9-0.6
			c1.4,0,2.9,0.3,4.1,1c0.9,0.5,1.7,1.3,2.3,2.2c0.6,0.9,0.9,2,0.9,3.2c0,1.3-0.4,2.5-1.2,3.4c-0.8,1-1.8,1.8-3.1,2.2
			c-1.3,0.3-2.6,0.5-3.9,0.5c-0.6,0-1.3,0-2.1-0.1s-1.6-0.1-2.2-0.1h-0.5l-0.4,0.1v0.2c-0.1,1.4,0.5,2.8,1.7,3.7
			c1.1,0.8,2.5,1.3,3.9,1.2c0.7,0,1.5-0.1,2.2-0.2c0.7-0.1,1.3-0.3,1.9-0.6c0.6-0.2,1.2-0.5,1.8-0.8c0.6-0.3,1.1-0.7,1.7-1
			L133.9,25.7z M127.4,10.6c-0.8,0-1.6,0.1-2.4,0.3c-0.7,0.2-1.4,0.6-2,1c-0.6,0.4-1.1,1-1.5,1.6c-0.4,0.7-0.6,1.5-0.7,2.3l2.2-0.1
			c0.6,0.1,1.1,0.1,1.7,0.1c0.6,0,1.3,0,1.9,0c0.5,0,1.1,0,1.6-0.1c0.5-0.1,1-0.2,1.4-0.4c0.4-0.2,0.7-0.5,1-0.8
			c0.7-1.1,0.4-2.6-0.7-3.4C129.1,10.8,128.3,10.6,127.4,10.6z"/>
		<path class="st0" d="M140.5,12.8c0,0.7,0.4,1.4,1,1.8c0.7,0.4,1.5,0.8,2.4,1c0.9,0.3,2,0.5,3.1,0.7c1.1,0.2,2.1,0.5,3.1,1
			c0.9,0.4,1.7,1,2.4,1.8c0.7,0.8,1,1.9,1,3c0,1-0.2,1.9-0.7,2.8c-0.4,0.8-1.1,1.5-1.8,2c-0.8,0.5-1.6,0.9-2.5,1.2
			c-2,0.5-4.1,0.5-6.1-0.1c-1-0.3-1.9-0.7-2.8-1.3c-0.8-0.5-1.5-1.3-2-2.1c-0.5-0.9-0.8-1.9-0.8-2.9c0-0.1,0-0.2,0-0.4
			c0-0.2,0-0.3,0-0.5h3.4c0,0.1,0,0.2,0,0.3v0.3c0,0.6,0.2,1.1,0.5,1.6c0.3,0.5,0.7,0.9,1.2,1.2c0.5,0.3,1.1,0.6,1.7,0.7
			c0.7,0.2,1.3,0.2,2,0.2c0.6,0,1.1-0.1,1.7-0.2c0.5-0.1,1-0.3,1.4-0.6c0.4-0.2,0.7-0.5,1-0.9c0.3-0.3,0.4-0.8,0.4-1.2
			c0-0.7-0.3-1.3-0.9-1.6c-0.7-0.4-1.5-0.7-2.4-0.9c-0.9-0.2-1.9-0.5-3-0.7c-1.1-0.2-2.1-0.5-3.1-1c-1-0.4-1.8-1-2.5-1.8
			c-0.7-0.9-1-2-0.9-3.1c0-0.9,0.2-1.8,0.6-2.7c0.4-0.7,0.9-1.4,1.6-1.9c0.7-0.5,1.5-0.9,2.3-1.1c0.9-0.3,1.8-0.4,2.7-0.4
			c1,0,2,0.1,3,0.4c0.9,0.3,1.8,0.7,2.6,1.3c0.8,0.6,1.4,1.3,1.9,2.2c0.5,0.9,0.7,2,0.7,3v0.7h-3.2c0-0.1,0.1-0.3,0.1-0.4
			c0-0.1,0-0.3,0-0.4c0-0.6-0.1-1.1-0.4-1.6c-0.3-0.5-0.6-0.9-1.1-1.2c-0.5-0.3-1-0.5-1.6-0.7c-0.6-0.2-1.2-0.2-1.8-0.2
			c-1,0-2,0.2-2.9,0.7C141.1,11.3,140.6,12,140.5,12.8z"/>
		<path class="st0" d="M160.6,10.5c0.2-0.7,0.5-1.3,1.1-1.8c0.5-0.5,1.1-0.8,1.7-1.1c0.6-0.2,1.2-0.4,1.8-0.5
			c0.4-0.1,0.9-0.1,1.4-0.1c1.3,0,2.7,0.2,3.9,0.6c1.1,0.3,2,0.9,2.7,1.8c0.8,0.9,1.3,2,1.6,3.1c0.4,1.5,0.6,3.1,0.5,4.7v10.6h-3.6
			V17.2c0-0.2,0.1-0.4,0.1-0.6s0-0.4,0-0.7c0-0.7-0.1-1.3-0.4-1.9c-0.2-0.6-0.6-1.2-1-1.7c-0.5-0.5-1-0.9-1.6-1.2
			c-0.7-0.3-1.4-0.5-2.2-0.5c-0.7,0-1.4,0.2-2,0.5c-0.7,0.3-1.3,0.8-1.9,1.3c-0.6,0.6-1,1.2-1.4,1.9c-0.4,0.7-0.6,1.6-0.6,2.4v11.1
			h-3.6V1.9h3.6L160.6,10.5z"/>
		<path class="st0" d="M182.1,4.8c-0.5,0-1-0.2-1.4-0.5c-0.7-0.7-0.8-1.8-0.1-2.6c0,0,0.1-0.1,0.1-0.1c0.4-0.4,0.9-0.6,1.4-0.5
			c0.5,0,1,0.2,1.4,0.5c0.7,0.7,0.8,1.8,0.1,2.6c0,0-0.1,0.1-0.1,0.1C183.1,4.6,182.6,4.8,182.1,4.8z M183.9,27.8h-3.5v-20h3.5V27.8
			z"/>
		<path class="st0" d="M35.8,17.7c-1.5-2-4-3-7.5-3c-1.7,0-3.4-0.1-5-0.4c0-0.5-0.2-0.9-0.6-1.2c-0.9-0.6-1.5-1.5-1.7-2.6
			c-0.4-2.1,0.5-4.7,2.7-7.8c0.3-0.6,0.1-1.4-0.5-1.7c-0.5-0.3-1.1-0.2-1.5,0.2c-1.2,1.6-2.1,3.3-2.8,5.2c0-0.3,0-0.5,0-0.8V5.3
			c0-0.3-0.1-0.5-0.3-0.7c-0.2-0.2-0.5-0.3-0.7-0.2c-0.1,0-9.6,1-15.2,0C2.3,4.4,2,4.5,1.8,4.8C1.6,5,1.5,5.4,1.7,5.7
			c0,0.1,3.4,6.9,1.5,20.1c-0.1,0.5,0.3,0.9,0.8,1c0,0,0.1,0,0.1,0h31.7c0.4,0,0.7-0.2,0.8-0.6C36.7,26,38.3,21.1,35.8,17.7z M4,6.3
			C8.3,6.7,12.7,6.7,17,6.2c-0.1,3.5-0.1,6.1,1.7,7.9s4.5,2.4,9.6,2.4c2.9,0,4.9,0.8,6,2.3c0.8,1.3,1.2,2.8,1,4.3h-30
			C6.2,14.5,4.8,8.9,4,6.3z"/>
	</g>
</g>
</svg>
