<?xml version="1.0" encoding="utf-8"?>
<!-- Generator: Adobe Illustrator 20.1.0, SVG Export Plug-In . SVG Version: 6.00 Build 0)  -->
<svg version="1.1" id="Layer_1" xmlns="http://www.w3.org/2000/svg" xmlns:xlink="http://www.w3.org/1999/xlink" x="0px" y="0px"
	 viewBox="0 0 94.8 125.9" style="enable-background:new 0 0 94.8 125.9;" xml:space="preserve">
<style type="text/css">
	.st0{fill:#FFFFFF;}
	.st1{fill:#FF3300;}
</style>
<title>Asset 11</title>
<g id="Layer_2">
	<g id="Layer_1-2">
		<path class="st0" d="M1.5,108.5c-0.4,0-0.7-0.1-1-0.4c-0.6-0.5-0.6-1.4-0.1-1.9c0,0,0,0,0.1-0.1c0.3-0.3,0.6-0.4,1-0.4
			c0.4,0,0.8,0.1,1.1,0.4c0.6,0.5,0.6,1.4,0.1,1.9c0,0,0,0-0.1,0.1C2.2,108.3,1.9,108.5,1.5,108.5z M2.8,125.5H0.2v-14.8h2.6V125.5z
			"/>
		<path class="st0" d="M14.3,125.5h-2.8l-6.2-14.8h2.8L14.3,125.5z M14.3,125.5h-2.8l6.2-14.8h2.8L14.3,125.5z"/>
		<path class="st0" d="M33.5,119.4v2.2c0,0.7,0,1.4,0,1.9s0,1,0,1.4v0.6h-2.8V124c-0.5,0.7-1.3,1.2-2.1,1.5
			c-0.8,0.3-1.6,0.4-2.5,0.4c-0.7,0-1.4-0.1-2.1-0.3c-0.7-0.2-1.3-0.5-1.9-0.9c-0.6-0.4-1-1-1.3-1.6c-0.3-0.7-0.5-1.4-0.5-2.2
			c0-0.8,0.1-1.5,0.4-2.2c0.3-0.6,0.7-1.1,1.2-1.5c0.5-0.4,1.1-0.7,1.8-0.8c0.7-0.2,1.5-0.3,2.2-0.3c0.8,0,1.5,0.1,2.3,0.2
			c0.8,0.1,1.6,0.3,2.5,0.6v-0.1c0-0.1,0.1-0.3,0.1-0.4V116c0-0.5-0.1-1-0.3-1.4c-0.2-0.4-0.5-0.7-0.8-1c-0.3-0.3-0.7-0.5-1.1-0.6
			c-0.4-0.1-0.9-0.2-1.3-0.2c-0.4,0-0.9,0-1.3,0.2c-0.4,0.1-0.8,0.3-1.1,0.5c-0.3,0.2-0.6,0.5-0.8,0.8c-0.2,0.4-0.4,0.8-0.4,1.2
			h-2.7c0-0.8,0.3-1.6,0.6-2.3c0.4-0.6,0.8-1.2,1.4-1.6c0.6-0.4,1.2-0.8,1.9-1c0.7-0.2,1.5-0.3,2.2-0.3c0.8,0,1.7,0.1,2.5,0.3
			c0.7,0.2,1.4,0.6,2,1.1c0.6,0.6,1.1,1.2,1.4,2c0.4,0.9,0.6,1.9,0.5,2.9v0.2c0.3,0,0.6-0.1,0.9-0.2l1-0.2v2.8L33.5,119.4z
			 M30.8,119.5c-0.2,0-0.4-0.1-0.6-0.1l-1.1-0.2c-0.4-0.1-0.8-0.2-1.3-0.2c-0.4-0.1-0.9-0.1-1.4-0.1c-0.4,0-0.7,0-1.1,0.1
			c-0.4,0.1-0.7,0.2-1.1,0.4c-0.3,0.2-0.6,0.4-0.8,0.7c-0.2,0.3-0.3,0.6-0.3,1c0,0.3,0.1,0.7,0.3,0.9c0.2,0.3,0.5,0.5,0.8,0.7
			c0.3,0.2,0.7,0.4,1.1,0.5c0.4,0.1,0.9,0.2,1.3,0.2c0.5,0,1.1-0.1,1.6-0.3c0.5-0.2,0.9-0.4,1.3-0.7c0.4-0.2,0.7-0.6,0.9-0.9
			c0.2-0.3,0.3-0.6,0.4-0.9L30.8,119.5z"/>
		<path class="st0" d="M40.6,125.5H38v-18.7h2.6L40.6,125.5z"/>
		<path class="st0" d="M57.6,124c-0.8,0.5-1.6,1-2.4,1.3c-1,0.4-2.1,0.6-3.2,0.6c-0.9,0-1.8-0.1-2.7-0.4c-0.8-0.3-1.5-0.7-2.1-1.2
			c-0.6-0.6-1.1-1.2-1.5-2c-0.4-0.9-0.6-1.8-0.6-2.7v-0.2c-0.3,0-0.6,0.1-1,0.1c-0.3,0-0.7,0.1-1,0.2V117c0.3-0.1,0.7-0.2,1-0.2
			c0.3,0,0.6,0,1-0.1c0-0.9,0.3-1.8,0.7-2.6c0.4-0.8,0.9-1.4,1.5-2c0.7-0.6,1.4-1,2.3-1.3c0.9-0.3,1.9-0.5,2.9-0.5
			c1.1,0,2.1,0.2,3.1,0.7c0.7,0.4,1.3,1,1.7,1.6c0.5,0.7,0.7,1.5,0.7,2.3c0,0.9-0.3,1.8-0.9,2.6c-0.6,0.8-1.4,1.3-2.3,1.6
			c-0.9,0.3-1.9,0.4-2.9,0.4c-0.4,0-1,0-1.6-0.1c-0.6,0-1.2-0.1-1.7-0.1h-0.4h-0.3v0.2c-0.1,1,0.4,2,1.2,2.7
			c0.8,0.6,1.9,0.9,2.9,0.9c0.6,0,1.1,0,1.7-0.2c0.5-0.1,1-0.2,1.4-0.4c0.4-0.2,0.9-0.4,1.3-0.6c0.4-0.2,0.8-0.5,1.2-0.8L57.6,124z
			 M52.8,112.8c-0.6,0-1.2,0.1-1.8,0.2c-0.5,0.2-1.1,0.4-1.5,0.7c-1,0.7-1.6,1.8-1.6,3l1.6-0.1c0.3,0,0.7,0.1,1.2,0.1h1.4
			c0.4,0,0.8,0,1.2-0.1c0.4,0,0.7-0.1,1.1-0.3c0.3-0.1,0.5-0.3,0.7-0.6c0.5-0.8,0.3-1.9-0.5-2.5C54,112.9,53.4,112.8,52.8,112.8z"/>
		<path class="st0" d="M62.5,114.4c0,0.5,0.3,1,0.7,1.3c0.5,0.3,1.1,0.6,1.8,0.7c0.7,0.2,1.5,0.4,2.3,0.5c0.8,0.1,1.6,0.4,2.3,0.7
			c0.7,0.3,1.3,0.7,1.8,1.3c0.5,0.6,0.8,1.4,0.7,2.3c0,0.7-0.1,1.4-0.5,2.1c-0.3,0.6-0.8,1.1-1.3,1.4c-0.6,0.4-1.2,0.7-1.9,0.9
			c-0.7,0.2-1.4,0.3-2.2,0.3c-0.8,0-1.6-0.1-2.3-0.3c-0.7-0.2-1.4-0.5-2.1-0.9c-0.6-0.4-1.1-0.9-1.5-1.6c-0.4-0.7-0.6-1.4-0.6-2.2
			c0-0.1,0-0.2,0-0.3s0-0.2,0-0.4h2.5c0,0.1,0,0.2,0,0.2v0.2c0,0.4,0.1,0.8,0.3,1.2c0.2,0.4,0.6,0.6,0.9,0.9
			c0.4,0.2,0.8,0.4,1.3,0.5c0.5,0.1,1,0.2,1.5,0.2c0.4,0,0.8,0,1.2-0.2c0.4-0.1,0.7-0.2,1-0.4c0.3-0.2,0.5-0.4,0.8-0.7
			c0.2-0.3,0.3-0.6,0.3-0.9c0-0.5-0.3-1-0.7-1.2c-0.5-0.3-1.1-0.5-1.7-0.7c-0.7-0.2-1.4-0.3-2.3-0.5c-0.8-0.1-1.5-0.4-2.3-0.7
			c-0.6-0.3-1.2-0.8-1.7-1.3c-0.5-0.7-0.7-1.5-0.7-2.3c0-0.7,0.1-1.4,0.4-2c0.3-0.5,0.7-1,1.2-1.4c0.5-0.4,1.1-0.7,1.7-0.8
			c0.6-0.2,1.3-0.3,2-0.3c0.7,0,1.5,0.1,2.2,0.3c0.7,0.2,1.4,0.6,2,1c0.5,0.4,1,1,1.3,1.6c0.4,0.7,0.5,1.5,0.5,2.3v0.5h-2.4
			c0-0.1,0-0.2,0.1-0.3c0-0.1,0-0.2,0-0.3c0-0.4-0.1-0.8-0.3-1.2c-0.2-0.4-0.5-0.6-0.8-0.9c-0.4-0.2-0.7-0.4-1.1-0.5
			c-0.4-0.1-0.9-0.2-1.3-0.2c-0.8,0-1.5,0.2-2.2,0.5C62.9,113.3,62.6,113.8,62.5,114.4z"/>
		<path class="st0" d="M77.4,112.8c0.1-0.5,0.4-1,0.8-1.3c0.4-0.3,0.8-0.6,1.2-0.8c0.4-0.2,0.9-0.3,1.3-0.4c0.3-0.1,0.7-0.1,1-0.1
			c1,0,2,0.1,2.9,0.4c0.8,0.3,1.5,0.7,2,1.3c0.6,0.7,1,1.5,1.2,2.3c0.3,1.1,0.4,2.3,0.4,3.5v7.9h-2.6v-7.9c0-0.2,0-0.3,0-0.5
			s0-0.3,0-0.5c0-0.5-0.1-1-0.3-1.4c-0.2-0.5-0.4-0.9-0.8-1.3c-0.3-0.4-0.8-0.7-1.2-0.9c-0.5-0.2-1.1-0.3-1.6-0.3
			c-0.5,0-1,0.1-1.5,0.4c-0.5,0.3-1,0.6-1.4,1c-0.4,0.4-0.8,0.9-1.1,1.4c-0.3,0.5-0.4,1.2-0.4,1.8v8.3h-2.7v-19.3h2.7L77.4,112.8z"
			/>
		<path class="st0" d="M93.3,108.5c-0.4,0-0.7-0.1-1-0.4c-0.6-0.5-0.6-1.4-0.1-1.9c0,0,0,0,0.1-0.1c0.3-0.3,0.6-0.4,1-0.4
			c0.4,0,0.8,0.1,1.1,0.4c0.6,0.5,0.6,1.4,0.1,1.9c0,0,0,0-0.1,0.1C94.1,108.3,93.7,108.5,93.3,108.5z M94.6,125.5H92v-14.8h2.6
			L94.6,125.5z"/>
		<circle class="st0" cx="47.4" cy="44.4" r="44.4"/>
		<path class="st1" d="M66.8,47.9c-1.7-2.3-4.5-3.4-8.4-3.4c-1.9,0-3.8-0.1-5.7-0.4c0-0.5-0.2-1-0.7-1.3c-1-0.7-1.6-1.7-1.9-2.9
			c-0.5-2.3,0.6-5.3,3.1-8.8c0.5-0.6,0.3-1.6-0.3-2c-0.6-0.5-1.6-0.3-2,0.3l0,0c-1.3,1.8-2.4,3.7-3.1,5.8c0-0.3,0-0.6,0-0.9v-0.4
			c0-0.3-0.1-0.6-0.3-0.8c-0.2-0.2-0.5-0.3-0.8-0.3c-0.1,0-10.8,1.2-17.1,0c-0.5-0.1-1.1,0.2-1.2,0.8c-0.1,0.2,0,0.5,0.1,0.7
			c0,0.1,3.8,7.7,1.7,22.6c0,0.3,0,0.6,0.2,0.8c0.2,0.2,0.5,0.4,0.8,0.3h35.7c0.5,0,0.9-0.3,1-0.7C67.8,57.2,69.6,51.7,66.8,47.9z
			 M31,35.1c4.9,0.4,9.8,0.4,14.7-0.1c-0.1,3.9-0.1,6.8,1.9,8.8c1.8,1.9,5,2.7,10.8,2.7c3.2,0,5.5,0.9,6.8,2.6
			c0.9,1.4,1.3,3.1,1.2,4.8H32.6C33.5,44.2,32,38,31,35.1z"/>
	</g>
</g>
</svg>
