<svg xmlns="http://www.w3.org/2000/svg" viewBox="0 0 535.11 722.07"><defs><style>.cls-1,.cls-2{fill:#191616;}.cls-1{opacity:0.25;}.cls-3{fill:#f30;}</style></defs><title>Asset 2</title><g id="Layer_2" data-name="Layer 2"><g id="Layer_1-2" data-name="Layer 1"><path class="cls-1" d="M57.71,234.31c13.47-9.18,18.38-.95,32.23-3.19,10-1.61,25.86-7.39,39.1-8.65,22.67-2.15,62.49-33.84,80.38-49.15a516.89,516.89,0,0,1,53-40.1c11-7.27,28.51-15.91,35.52-25.76S328.32,48.44,325,0L459.44,36.08s-22.29,86.2-1.43,159.79-31.23,89.71-54.08,90.55S337.88,272.61,300,271s-76.91,14.36-99.76,14.55-33.68-10.46-50.35-10c-18.28.48-38.43,10.77-56.71,10.93C63.16,286.68,36.13,249,57.71,234.31Z"/><path class="cls-1" d="M52.88,499.29c15.5-20.83,46.66-6,58.66-5.33s29.92-11.43,55.34-8c24.66,3.33,32.66,16.36,83.33,33.33,0,0,38.67,15.34,88.67-8s104-19.44,120,12.95-9.34,75-46,83.72-98.67-2-132.67,18.67-72,8-92.67,9.33-30.75,10-45.5,7.75-12-10-16.25-12.75-21.5-3.25-25.75-8.5.25-16.5-2.75-17.75-17.75-5-22-9.5S79.79,580,76.54,575s-12-3.25-13.5-8.75,3.75-17.25-1.25-22S27.74,533.08,52.88,499.29Z"/><polygon class="cls-2" points="515.59 296.74 480.2 296.74 480.2 192.63 474.38 192.63 474.38 296.74 41.21 296.74 41.21 192.63 35.4 192.63 35.4 296.74 0 296.74 0 302.56 35.4 302.56 35.4 322.63 41.21 322.63 41.21 302.56 474.38 302.56 474.38 322.63 480.2 322.63 480.2 302.56 515.59 302.56 515.59 296.74"/><polygon class="cls-2" points="503.17 681.2 480.2 681.2 480.2 577.08 474.38 577.08 474.38 681.2 41.21 681.2 41.21 577.08 35.4 577.08 35.4 681.2 12.43 681.2 12.43 687.01 35.4 687.01 35.4 707.08 41.21 707.08 41.21 687.01 474.38 687.01 474.38 707.08 480.2 707.08 480.2 687.01 503.17 687.01 503.17 681.2"/><path d="M237.76,712a9.64,9.64,0,0,1,9.94-9.91,9.8,9.8,0,0,1,7.13,2.64l-1.69,2.61a9,9,0,0,0-2.49-1.47,7.48,7.48,0,0,0-2.79-.57,6.08,6.08,0,0,0-4.76,1.91,6.83,6.83,0,0,0-1.72,4.73,7.21,7.21,0,0,0,1.75,4.89,5.94,5.94,0,0,0,4.76,2,7.85,7.85,0,0,0,5.61-2.45l1.85,2.53a10.27,10.27,0,0,1-7.6,3.13,9.59,9.59,0,0,1-7.24-2.86A10,10,0,0,1,237.76,712Z"/><path d="M257.63,721.74l1.58-19.32h3.73l3.81,9.55.95,2.83h.06c.34-1.12.66-2.07.95-2.83l3.81-9.55h3.73l1.58,19.32h-3.51l-.79-10.8a13,13,0,0,1-.06-1.32c0-.5,0-.91,0-1.22v-.46h-.05c-.42,1.25-.77,2.25-1.06,3l-3.13,7.48h-3.05l-3.13-7.48-1.06-3H262a21.3,21.3,0,0,1,0,3l-.79,10.8Z"/><path class="cls-3" d="M37,167.46a2.61,2.61,0,0,0,4.43,0L55.15,145H22.7Z"/><polygon class="cls-3" points="22.7 136.16 55.15 136.17 55.15 56.79 22.7 56.79 22.7 136.16"/><path class="cls-3" d="M473.26,162.21a2.61,2.61,0,0,0,4.06,1.78L499,149.1l-29.6-13.29Z"/><polygon class="cls-3" points="473.01 127.79 502.61 141.09 535.11 68.67 505.51 55.39 473.01 127.79"/></g></g></svg>