<svg xmlns="http://www.w3.org/2000/svg" viewBox="0 0 170.72 80.96"><defs><style>.cls-1{fill:#f30;}</style></defs><title>line-4</title><g id="Layer_2" data-name="Layer 2"><g id="Layer_1-2" data-name="Layer 1"><g id="Layer_2-2" data-name="Layer 2"><g id="Layer_1-2-2" data-name="Layer 1-2"><path class="cls-1" d="M3,81l-3-4A195.43,195.43,0,0,0,28.62,51.11C38.3,40.51,51,34.34,62,33.69,73.56,23.06,95,15.4,124.78,18.48,144,20.47,167.18.21,167.41,0l3.31,3.75c-1,.85-22.76,19.86-43.25,19.87a31.38,31.38,0,0,1-3.21-.17C98.44,20.78,80.37,26.58,69.6,34.17a21.28,21.28,0,0,1,9.89,4.71c6.38,5.53,4.92,14.23.17,20-5,6-14.14,9.53-22.45,3-4.81-3.8-6-10.11-3.29-16.88a28,28,0,0,1,3-5.45c-8.42,1.95-17.47,7.18-24.6,15A199.92,199.92,0,0,1,3,81Zm61.3-42.33a25.51,25.51,0,0,0-5.72,8.19c-1.89,4.66-1.25,8.7,1.76,11.08C66,62.4,72.2,60,75.81,55.66c3.1-3.75,4.55-9.41.4-13C73.11,40,68.94,38.67,64.27,38.63Z"/></g></g></g></g></svg>