<svg xmlns="http://www.w3.org/2000/svg" viewBox="0 0 100.91 120.08"><defs><style>.cls-1{fill:#f30;}</style></defs><title>line-2</title><g id="Layer_2" data-name="Layer 2"><g id="Layer_1-2" data-name="Layer 1"><g id="Layer_2-2" data-name="Layer 2"><g id="Layer_1-2-2" data-name="Layer 1-2"><path class="cls-1" d="M.78,120.08,0,115.14c.46-.08,45.41-7.51,49.67-37.9-4.53-.83-8.11-2.49-9.63-4.67-2.48-3.54-2.75-7.14-.73-9.63s5.51-3.07,8.75-1.7c1.65.7,6.42,3.43,6.83,11.56.91,0,1.87,0,2.87,0,7.7-.28,22.07-3.21,31.82-19.58C104.43,28.3,88,3,87.85,2.77L92,0c.76,1.13,18.36,28.1,1.87,55.79C82.51,74.88,65,77.55,57.94,77.81c-1.12,0-2.22,0-3.29,0C50,112,2.79,119.76.78,120.08ZM44.67,65.54a1.93,1.93,0,0,0-1.48.54c-.52.64-.14,2.07,1,3.63.5.71,2.49,1.78,5.67,2.47-.41-3.61-2-5.62-3.71-6.33A3.63,3.63,0,0,0,44.67,65.54Z"/></g></g></g></g></svg>