<svg xmlns="http://www.w3.org/2000/svg" viewBox="0 0 80.96 170.72"><defs><style>.cls-1{fill:#f30;}</style></defs><title>line-1</title><g id="Layer_2" data-name="Layer 2"><g id="Layer_1-2" data-name="Layer 1"><path class="cls-1" d="M76.94,170.72A194.93,194.93,0,0,0,51.1,142.1c-10.59-9.68-16.76-22.34-17.41-33.42-10.63-11.52-18.29-33-15.21-62.74C20.46,26.78.2,3.54,0,3.31L3.75,0c.9,1,21.91,25.11,19.7,46.46-2.67,25.81,3.13,43.89,10.72,54.66a21.28,21.28,0,0,1,4.71-9.89c5.53-6.38,14.23-4.92,20-.17,6,5,9.54,14.14,3,22.45-3.8,4.81-10.11,6-16.88,3.29a27.19,27.19,0,0,1-5.45-3c1.95,8.42,7.18,17.47,15,24.6A199.92,199.92,0,0,1,81,167.75ZM38.63,106.45a25.51,25.51,0,0,0,8.19,5.72c4.66,1.89,8.7,1.25,11.08-1.76,4.5-5.7,2.12-11.89-2.24-15.5-3.75-3.1-9.42-4.55-13-.4C40,97.61,38.67,101.78,38.63,106.45Z"/></g></g></svg>