<svg xmlns="http://www.w3.org/2000/svg" viewBox="0 0 100.91 120.07"><defs><style>.cls-1{fill:#f30;}</style></defs><title>line-5</title><g id="Layer_2" data-name="Layer 2"><g id="Layer_1-2" data-name="Layer 1"><g id="Layer_2-2" data-name="Layer 2"><g id="Layer_1-2-2" data-name="Layer 1-2"><path class="cls-1" d="M8.9,120.07C8.14,118.94-9.46,92,7,64.29,18.4,45.19,36,42.53,43,42.27c1.12,0,2.22,0,3.3,0C50.9,8.1,98.11.32,100.13,0l.78,4.94c-.46.07-45.42,7.51-49.68,37.89,4.53.83,8.11,2.5,9.63,4.67,2.48,3.54,2.76,7.14.74,9.64s-5.52,3.06-8.75,1.69c-1.65-.7-6.42-3.43-6.84-11.56-.91,0-1.86,0-2.86,0-7.7.28-22.08,3.2-31.83,19.58-14.85,24.93,1.57,50.2,1.74,50.45ZM51.09,47.9c.42,3.61,2,5.61,3.71,6.33A2.58,2.58,0,0,0,57.71,54c.52-.64.15-2.06-.94-3.62C56.27,49.66,54.28,48.58,51.09,47.9Z"/></g></g></g></g></svg>